# xmcd
#
# Track frame offsets:
#	150
#	10763
#	20679
#	31067
#	45033
#	56036
#	63867
#	74825
#	88806
#	103807
#	115105
#	124811
#	134847
#	144485
#	165013
#	173721
#	187447
#	199485
#	210451
#	221649
#
# Disc length: 3128 seconds
#
# Revision: 0
# Processed by: cddbd v1.5.2PL0 Copyright (c) Steve Scherf et al.
# Submitted via: EZCDAudioConverter 3.1.0.1
#
DISCID=2a0c3614
DTITLE=The Sons Of The Pioneers - 20 Of The Best
DYEAR=1900
DGENRE=Country
TTITLE0=Riders In The Sky
TTITLE1=Don't Fence Me In
TTITLE2=Red River Valley
TTITLE3=Carry Me Back To The Lone Prairie
TTITLE4=One More Ride
TTITLE5=Way Out There
TTITLE6=Song Of The Bandit
TTITLE7=Room Full Of Roses
TTITLE8=Ringo
TTITLE9=Twilight On The Trail
TTITLE10=Cool Water
TTITLE11=My Adobe Hacienda
TTITLE12=Along The Navajo Trail
TTITLE13=El Paso
TTITLE14=Song Of The Pioneers
TTITLE15=The Mystery Of His Way
TTITLE16=The Shifting Whispering Sands
TTITLE17=Ragtime Cowboy Joe
TTITLE18=Tumbling Tumbleweeds
TTITLE19=The Last Round Up
EXTD=
EXTT0=
EXTT1=
EXTT2=
EXTT3=
EXTT4=
EXTT5=
EXTT6=
EXTT7=
EXTT8=
EXTT9=
EXTT10=
EXTT11=
EXTT12=
EXTT13=
EXTT14=
EXTT15=
EXTT16=
EXTT17=
EXTT18=
EXTT19=
PLAYORDER=
